<?xml version="1.0" encoding="UTF-8"?>
<svg version="1.1" xmlns="http://www.w3.org/2000/svg" width="1024" height="1024">
<path d="M0 0 C337.92 0 675.84 0 1024 0 C1024 337.92 1024 675.84 1024 1024 C686.08 1024 348.16 1024 0 1024 C0 686.08 0 348.16 0 0 Z " fill="#070707" transform="translate(0,0)"/>
<path d="M0 0 C0 134.97 0 269.94 0 409 C-13 409 -13 409 -19 408 C-19 279.96 -19 151.92 -19 20 C-34.35188132 24.09383502 -45.37215312 28.6508167 -57 39 C-57.70898438 39.62648437 -58.41796875 40.25296875 -59.1484375 40.8984375 C-64.53098066 45.95101633 -68.34981461 51.61002839 -72 58 C-72.80630859 59.40765625 -72.80630859 59.40765625 -73.62890625 60.84375 C-81.33225133 75.20788217 -83.15309209 90.01484142 -83.14044189 106.06007385 C-83.14341302 107.24887191 -83.14638414 108.43766997 -83.1494453 109.66249222 C-83.15658602 112.94053626 -83.15930151 116.21854823 -83.16004276 119.49659884 C-83.16190378 123.04075296 -83.16945629 126.58489596 -83.17617798 130.12904358 C-83.18971929 137.86900595 -83.19577942 145.60896312 -83.20018864 153.34893537 C-83.20295813 158.18863296 -83.20719675 163.02832857 -83.21169281 167.86802483 C-83.22387989 181.28748353 -83.23418037 194.70694065 -83.2375679 208.12640476 C-83.23778747 208.98410617 -83.23800703 209.84180757 -83.23823325 210.72549992 C-83.23845153 211.58516449 -83.23866981 212.44482905 -83.2388947 213.33054405 C-83.23933816 215.0723321 -83.23978472 216.81412015 -83.24023438 218.5559082 C-83.2404558 219.41988124 -83.24067723 220.28385427 -83.24090537 221.1740083 C-83.24485053 235.16268097 -83.26229844 249.15130145 -83.2855939 263.13995398 C-83.309359 277.52763612 -83.32177209 291.91529212 -83.32293582 306.30299419 C-83.32384967 314.3707574 -83.32952865 322.4384526 -83.34775543 330.50619698 C-83.36322622 337.37788155 -83.36823601 344.24947708 -83.36001733 351.12117577 C-83.35613538 354.62092312 -83.35691867 358.12049154 -83.37107468 361.62021637 C-83.42854431 378.73172167 -82.98945535 394.68371575 -77.3125 411 C-77.05758789 411.74217773 -76.80267578 412.48435547 -76.54003906 413.24902344 C-70.05984169 431.46635248 -59.81107564 446.69871578 -46.41650391 460.53222656 C-44.99524487 462.00492724 -43.59721558 463.49742498 -42.19921875 464.9921875 C-27.00470119 480.97822134 -7.74226102 492.86276497 11.18994141 503.93847656 C12.92764619 504.95756753 14.65737608 505.99022008 16.38671875 507.0234375 C25.31714043 512.27174571 34.54831685 516.67069296 43.93554688 521.03076172 C46.48040919 522.22554689 48.99354043 523.47681433 51.5 524.75 C59.76944862 528.92043005 68.17424251 532.49427613 76.83984375 535.7578125 C79.64801849 536.86164386 82.3426706 538.07254648 85.0625 539.375 C92.59460046 542.86814804 100.48552784 545.39915715 108.33300781 548.07958984 C110.96621454 548.98834024 113.58951373 549.92112989 116.2109375 550.86328125 C126.0769223 554.40007279 135.84479479 557.37657199 146 560 C155.9 562.97 155.9 562.97 166 566 C166 447.86 166 329.72 166 208 C154.25949287 210.30205228 154.25949287 210.30205228 143.8125 214.75 C143.14307373 215.10360596 142.47364746 215.45721191 141.78393555 215.8215332 C139.84355605 216.86008226 137.92090619 217.92597281 136 219 C135.01 219.53496094 134.02 220.06992187 133 220.62109375 C113.06659439 232.23925603 101.14481549 252.40476678 94.89453125 274.0546875 C92.2729669 284.84579132 91.69692692 295.54891981 91.68115234 306.61254883 C91.67182954 308.13169372 91.66165747 309.65083359 91.65071106 311.16996765 C91.62366175 315.25170174 91.60833703 319.33340182 91.59528303 323.41520143 C91.57954143 327.69665521 91.55278703 331.97804063 91.5272522 336.25944519 C91.4806581 344.34799324 91.44382091 352.43655442 91.41057932 360.52516717 C91.3722202 369.74178077 91.32284665 378.95832538 91.27259517 388.17488062 C91.16956376 407.11653644 91.08021069 426.05823448 91 445 C87.02941652 444.44252137 83.10089741 443.87725896 79.1875 443 C78.43855469 442.835 77.68960937 442.67 76.91796875 442.5 C75 442 75 442 73 441 C72.90621216 420.84065788 72.83585303 400.68136055 72.79275131 380.52184486 C72.77219908 371.15967097 72.74422032 361.79763329 72.69824219 352.43554688 C72.6581481 344.26761919 72.63251399 336.09979024 72.62364602 327.93176687 C72.61846914 323.61402039 72.60645826 319.29655617 72.57707977 314.97890091 C72.35042909 280.29646978 72.35042909 280.29646978 77 266 C77.22855934 265.29435535 77.45711868 264.58871071 77.69260406 263.86168289 C86.67471587 236.44456441 105.58162255 212.77809963 131.41796875 199.52929688 C134.58772842 197.96225809 137.77574603 196.45148025 141 195 C142.16273438 194.46632813 143.32546875 193.93265625 144.5234375 193.3828125 C148.05531386 191.97799876 151.40168676 191.11966265 155.125 190.375 C156.30320312 190.13523437 157.48140625 189.89546875 158.6953125 189.6484375 C159.78585937 189.43445313 160.87640625 189.22046875 162 189 C162.71140137 188.82291504 163.42280273 188.64583008 164.15576172 188.46337891 C168.05513689 187.82809873 171.86968863 187.89453558 175.8125 187.9375 C176.99489258 187.94426758 176.99489258 187.94426758 178.20117188 187.95117188 C180.13414761 187.96288688 182.06708393 187.98082002 184 188 C184.06876031 240.47703598 184.12157654 292.95406738 184.15319599 345.43113959 C184.15694783 351.63532686 184.16083082 357.83951404 184.16479492 364.04370117 C184.16558185 365.27877316 184.16636878 366.51384515 184.16717956 367.78634357 C184.18021126 387.74915289 184.20385272 407.71193613 184.23145839 427.67473001 C184.25957492 448.17891445 184.27618944 468.6830853 184.28226548 489.18728822 C184.28636899 501.82573404 184.29930015 514.46410612 184.3237494 527.10252922 C184.33968382 535.78500478 184.34438303 544.46744257 184.34050413 553.14993168 C184.33859451 558.14916431 184.3413914 563.14826865 184.35761642 568.1474781 C184.43220947 592.32930473 183.9485322 615.75313996 178.125 639.375 C177.73211792 641.01045776 177.73211792 641.01045776 177.33129883 642.67895508 C176.57343034 645.79121003 175.79355635 648.89667474 175 652 C174.69473389 653.20197021 174.69473389 653.20197021 174.38330078 654.42822266 C164.17261889 693.78464079 141.60318527 734.55692625 111 762 C110.34 762 109.68 762 109 762 C109 762.66 109 763.32 109 764 C107.6015625 765.41015625 107.6015625 765.41015625 105.625 767.0625 C103.33205466 768.99779356 101.07629969 770.92683786 98.91015625 773.00390625 C90.75568222 780.78576811 81.40009218 786.83667426 72 793 C71.38157227 793.40669922 70.76314453 793.81339844 70.12597656 794.23242188 C45.5920555 810.22722689 15.92072193 822.42606948 -13 827 C-14.11133301 827.17700439 -15.22266602 827.35400879 -16.36767578 827.53637695 C-25.88581223 828.92925885 -35.19978335 829.36098869 -44.8125 829.3125 C-45.94594849 829.30976578 -45.94594849 829.30976578 -47.10229492 829.30697632 C-67.88893421 829.22322962 -88.11881705 827.32162773 -108 821 C-108.80598633 820.74734375 -109.61197266 820.4946875 -110.44238281 820.234375 C-143.35372199 809.75616479 -178.32754335 790.7222861 -200.63671875 763.65234375 C-202.10380388 761.82065721 -202.10380388 761.82065721 -204.375 759.625 C-218.43764251 745.56235749 -228.57918518 729.00646592 -238.25 711.75 C-238.66241943 711.0175708 -239.07483887 710.2851416 -239.49975586 709.53051758 C-242.3046296 704.46990849 -244.70791085 699.30959702 -247 694 C-247.60811024 692.63427085 -248.21878156 691.26967913 -248.83203125 689.90625 C-249.14785156 689.20306641 -249.46367187 688.49988281 -249.7890625 687.77539062 C-254.33351766 677.67178325 -258.91270707 667.58420511 -263.5 657.5 C-281.75284087 617.36946071 -281.75284087 617.36946071 -290 597.9375 C-292.58737817 591.87268558 -295.35260654 585.91084384 -298.19140625 579.9609375 C-299.65796923 576.81782733 -300.99646464 573.63148881 -302.3203125 570.42578125 C-305.18684968 563.49547744 -308.23681732 556.65194157 -311.3125 549.8125 C-311.73861572 548.86213867 -311.73861572 548.86213867 -312.17333984 547.89257812 C-316.07321784 539.19504 -320.04696011 530.53988195 -324.21875 521.96875 C-325.75701112 518.68114562 -327.02987091 515.31967037 -328.3046875 511.921875 C-330.80697044 505.33473318 -333.70353323 498.98570473 -336.73214722 492.62600708 C-338.28460287 489.36408322 -339.82077601 486.09452986 -341.35546875 482.82421875 C-341.66442581 482.16602646 -341.97338287 481.50783417 -342.29170227 480.82969666 C-345.76085445 473.41317085 -349.04032545 465.91541666 -352.31152344 458.40991211 C-354.59617586 453.17375635 -356.92143666 447.97158185 -359.375 442.8125 C-363.54756429 433.99252755 -367.35833885 425.01109917 -371.20654297 416.04614258 C-374.30935445 408.83183075 -377.51112637 401.69176458 -380.91381836 394.61376953 C-382 392 -382 392 -382 389 C-362.30528734 385.84884597 -340.33167929 384.39862741 -321 390 C-320.20078125 390.23106445 -319.4015625 390.46212891 -318.578125 390.70019531 C-301.17033543 395.8795339 -285.15795901 402.97553644 -270 413 C-269.09507812 413.598125 -268.19015625 414.19625 -267.2578125 414.8125 C-260.58813944 419.353554 -254.70117168 424.49979136 -248.7890625 429.96875 C-248.21647705 430.49831299 -247.6438916 431.02787598 -247.05395508 431.57348633 C-245.91875284 432.62561334 -244.78566872 433.68003176 -243.6550293 434.73706055 C-240.53739596 437.63929204 -237.34302947 440.35560018 -234 443 C-232.31237149 444.6454378 -230.6459651 446.31288577 -229 448 C-227.33394462 449.66727773 -225.66720001 451.33386685 -224 453 C-222.25606452 454.7547653 -220.51259499 456.50999377 -218.76953125 458.265625 C-217.29115534 459.75135928 -215.8123087 461.2366232 -214.33325195 462.72167969 C-213.31316404 463.74684429 -212.29396832 464.77289739 -211.27563477 465.79980469 C-209.79676883 467.29075558 -208.3147349 468.7784918 -206.83203125 470.265625 C-205.95264893 471.15024414 -205.0732666 472.03486328 -204.16723633 472.94628906 C-202.17457485 475.03379889 -202.17457485 475.03379889 -200 476 C-200.00075944 475.34936549 -200.00151888 474.69873098 -200.00230134 474.02838027 C-200.04709697 435.43172959 -200.08139306 396.83508226 -200.10213066 358.23841082 C-200.10463195 353.59985847 -200.10722061 348.96130618 -200.10986328 344.32275391 C-200.1103879 343.39933567 -200.11091252 342.47591744 -200.11145304 341.52451684 C-200.12014602 326.58982391 -200.13590988 311.65514644 -200.15430559 296.72046266 C-200.17303547 281.38612775 -200.18412325 266.05180091 -200.18817699 250.71745503 C-200.19091565 241.26203225 -200.19955282 231.80665319 -200.21583293 222.35124387 C-200.22643795 215.8596191 -200.22959269 209.3680168 -200.22700275 202.876384 C-200.22572692 199.13597751 -200.22762644 195.39564718 -200.23841095 191.65525436 C-200.25005259 187.58757461 -200.24594864 183.52005484 -200.24050903 179.45236206 C-200.24633472 178.28694787 -200.2521604 177.12153368 -200.25816262 175.9208039 C-200.1617204 149.09280954 -190.62689754 122.0797541 -172.2265625 102.1875 C-168.08387962 98.11749577 -163.60662198 94.52806169 -159 91 C-157.83017578 90.08927734 -157.83017578 90.08927734 -156.63671875 89.16015625 C-140.0996879 76.90329809 -117.83648458 68.17315537 -97 69 C-96.86464844 68.44054687 -96.72929687 67.88109375 -96.58984375 67.3046875 C-90.43008242 44.36234291 -74.25142309 25.04810965 -54 13 C-36.11964737 2.89850426 -20.93168347 0 0 0 Z " fill="#F7F8F8" transform="translate(564,86)"/>
<path d="M0 0 C-0.00075944 0.60679623 -0.00151888 1.21359247 -0.00230134 1.83877647 C-0.04713211 37.86373936 -0.08141074 73.88869743 -0.10213066 109.91368245 C-0.10463184 114.24665423 -0.10722051 118.57962596 -0.10986328 122.91259766 C-0.11065021 124.2064327 -0.11065021 124.2064327 -0.11145304 125.52640583 C-0.12013748 139.46255204 -0.13589657 153.39868162 -0.15430559 167.33481799 C-0.17305936 181.65216099 -0.18412827 195.96949532 -0.18817699 210.28685009 C-0.19091072 219.10964771 -0.19952082 227.93239831 -0.21583293 236.75518145 C-0.22646755 242.81886432 -0.22958609 248.88252316 -0.22700275 254.94621466 C-0.22573146 258.43598594 -0.22757327 261.92567551 -0.23841095 265.41543198 C-0.28707795 283.80652131 -0.20699143 301.84071092 4.75 319.6875 C5.01458008 320.65953369 5.27916016 321.63156738 5.55175781 322.63305664 C9.61298784 337.1617096 15.56996111 349.53746172 24 362 C24.64839844 362.96550781 25.29679687 363.93101562 25.96484375 364.92578125 C52.59989481 402.93563212 93.94844954 428.04401132 135 448 C135.7822998 448.38414062 136.56459961 448.76828125 137.37060547 449.1640625 C176.54816542 468.37710357 217.65076441 483.5454011 260 494 C261.59389326 494.39786403 263.18766459 494.79621721 264.78125 495.1953125 C265.8434375 495.46085937 266.905625 495.72640625 268 496 C267.22695539 518.31773506 265.31795225 539.47322153 259 561 C258.66355469 562.16660156 258.32710937 563.33320312 257.98046875 564.53515625 C248.33735903 597.15449331 232.02664986 626.86081345 209 652 C207.68434571 653.53897568 206.3713434 655.08022775 205.0625 656.625 C202.59394229 659.44023167 199.98292265 661.72355903 197 664 C196.278125 664.721875 195.55625 665.44375 194.8125 666.1875 C185.9573295 675.0426705 176.47041648 682.19876849 166 689 C165.08541016 689.59578857 165.08541016 689.59578857 164.15234375 690.20361328 C147.31000763 701.04471041 129.0687457 708.99578981 110 715 C109.25186035 715.24089355 108.5037207 715.48178711 107.73291016 715.72998047 C93.70747506 720.18854036 78.931505 723.11573314 64.17163086 723.0300293 C63.19810165 723.02569382 62.22457245 723.02135834 61.22154236 723.01689148 C60.48843338 723.01131729 59.7553244 723.0057431 59 723 C58.99191315 722.22644165 58.98382629 721.4528833 58.97549438 720.65588379 C58.89647127 713.2462968 58.80889177 705.83687726 58.71247292 698.42749786 C58.6632236 694.62129606 58.61690987 690.81511302 58.578125 687.00878906 C58.34207753 664.1621626 58.02074749 641.32437515 53.6875 618.8125 C53.46803711 617.64017822 53.24857422 616.46785645 53.02246094 615.26000977 C52.36952586 611.83536998 51.69214362 608.41691155 51 605 C50.81066895 604.0605957 50.62133789 603.12119141 50.42626953 602.15332031 C42.51223893 563.90334902 26.66685703 526.80277299 4 495 C2.88818359 493.41832031 2.88818359 493.41832031 1.75390625 491.8046875 C-9.72383374 475.74032626 -23.11643931 461.71125699 -37.06225586 447.80737305 C-39.19827357 445.67675366 -41.32884118 443.54078777 -43.45898438 441.40429688 C-44.84082507 440.0231165 -46.22297567 438.64224611 -47.60546875 437.26171875 C-48.22963181 436.63553146 -48.85379486 436.00934418 -49.49687195 435.36418152 C-53.30036866 431.5805163 -57.22263261 427.98812634 -61.29023743 424.48957825 C-63.9244624 422.19459047 -66.32543108 419.69866067 -68.75 417.1875 C-70.84057672 415.01872101 -70.84057672 415.01872101 -72.93519527 413.72271055 C-76.3722217 411.27296272 -78.6366161 409.370128 -79.74208772 405.20198071 C-80.0190638 401.67952098 -80.04198838 398.23292777 -79.98222351 394.69984436 C-79.9878649 393.33987877 -79.99701245 391.979924 -80.00935107 390.62000269 C-80.03301713 386.8921491 -80.00690688 383.16606434 -79.97250211 379.4383558 C-79.9440876 375.41423581 -79.96191119 371.39028471 -79.97395325 367.36611938 C-79.99025668 359.4840006 -79.96399607 351.602569 -79.92352702 343.7205596 C-79.87801531 334.53183213 -79.87529423 325.34324094 -79.87446842 316.154419 C-79.87159271 299.74692308 -79.83080956 283.33974094 -79.76831055 266.93237305 C-79.70779643 251.0352039 -79.67229887 235.13825164 -79.66577148 219.2409668 C-79.66536591 218.26315678 -79.66496033 217.28534675 -79.66454246 216.27790613 C-79.66414416 215.30174163 -79.66374587 214.32557714 -79.6633355 213.31983191 C-79.66252959 211.35406784 -79.66171496 209.38830377 -79.66089153 207.42253971 C-79.66049003 206.452938 -79.66008853 205.48333629 -79.65967486 204.48435271 C-79.6523845 189.30897994 -79.622561 174.13364099 -79.59026789 158.95830386 C-79.57884582 153.47122606 -79.57060651 147.98415429 -79.56468441 142.49706794 C-79.55516154 133.78371463 -79.53577415 125.0705035 -79.49660971 116.35722876 C-79.47889717 112.37956958 -79.46560357 108.40204318 -79.46528244 104.4243412 C-79.45606452 74.26583453 -76.70758982 48.09823229 -55 25 C-40.46823842 11.10813133 -20.57749595 -0.14241217 0 0 Z " fill="#070707" transform="translate(462,174)"/>
<path d="M0 0 C29.25288012 -1.18860461 60.34343903 10.8673952 83 29 C83.8353125 29.64582031 84.670625 30.29164063 85.53125 30.95703125 C94.91288214 38.29728973 103.50243007 46.35994793 111.82714844 54.86376953 C114.74498192 57.82653188 117.71289411 60.65614959 120.8671875 63.3671875 C126.30100441 68.05890102 131.25913924 73.21236688 136.2890625 78.328125 C140.43537121 82.51717916 144.65924992 86.5103133 149.12890625 90.3515625 C152.61749733 93.42501853 155.82141228 96.77955224 159.06640625 100.10546875 C161.91813763 102.99924039 164.82716427 105.75414686 167.90625 108.40625 C172.86762954 112.69345165 177.41140699 117.36084853 182 122.0390625 C185.13265139 125.20842465 188.2787214 128.28865811 191.66796875 131.18359375 C197.20649118 135.96004576 202.35732673 141.13422014 207.53491211 146.29467773 C209.29156977 148.04168475 211.05864693 149.77767029 212.82617188 151.51367188 C220.58634077 159.20283029 227.41537675 167.2921717 234 176 C235.18261628 177.48307418 236.36882711 178.96331029 237.5625 180.4375 C249.393218 195.72120268 258.61863691 212.6436134 267 230 C267.72896484 231.50240234 267.72896484 231.50240234 268.47265625 233.03515625 C271.04657448 238.50571639 273.1129321 244.01250542 274.91015625 249.78515625 C275.82966144 252.49753177 276.84865252 255.10366425 277.9375 257.75 C292.44959768 293.71680435 294.55883732 334.20078556 294.20599365 372.5177002 C294.17454434 376.31382952 294.16144554 380.11002625 294.14648438 383.90625 C294.11491409 391.27100662 294.06415977 398.63544714 294 406 C273.24527553 404.01574678 273.24527553 404.01574678 264.0625 401.8125 C263.15483887 401.59891846 262.24717773 401.38533691 261.31201172 401.1652832 C245.71039136 397.34941958 231.05683571 391.75012439 217 384 C216.31341309 383.62504395 215.62682617 383.25008789 214.91943359 382.86376953 C197.26991313 373.13323024 182.35755946 361.08673564 168 347 C167.39534912 346.4136377 166.79069824 345.82727539 166.16772461 345.22314453 C162.38569817 341.51342531 158.93169386 337.6869249 155.6875 333.5 C155.22093994 332.89961914 154.75437988 332.29923828 154.27368164 331.68066406 C138.91625368 311.66750511 128.26322958 289.65143155 118.01847839 266.72766113 C114.65413829 259.20628823 111.21485196 251.71987842 107.77514648 244.23275757 C102.44768372 232.62960329 97.19678919 220.99843869 92.08544922 209.2980957 C88.41167529 200.8990315 84.65345167 192.53982722 80.875 184.1875 C80.57236237 183.51807373 80.26972473 182.84864746 79.95791626 182.15893555 C77.19209218 176.04115125 74.42349036 169.92468508 71.63671875 163.81640625 C68.12225333 156.09109059 64.70074336 148.33068664 61.36328125 140.52734375 C61.0369722 139.7644101 60.71066315 139.00147644 60.37446594 138.21542358 C58.74150138 134.39408163 57.11295703 130.5709229 55.49047852 126.74511719 C52.36504316 119.39261586 49.15984419 112.0981851 45.75109863 104.87193298 C41.67400804 96.21871377 37.7902893 87.47725915 33.875 78.75 C32.69308241 76.11792134 31.51085495 73.48598213 30.32847595 70.85411072 C29.56633692 69.15756758 28.80442265 67.46092345 28.04273987 65.76417542 C26.21503672 61.69460287 24.37790438 57.62990352 22.51953125 53.57421875 C18.0841253 43.8409668 13.85347626 34.0138988 9.56665039 24.21459961 C8.36431123 21.46690449 7.16072925 18.71975631 5.95703125 15.97265625 C5.58931107 15.13098404 5.22159088 14.28931183 4.84272766 13.4221344 C4.49864365 12.6370903 4.15455963 11.8520462 3.80004883 11.04321289 C3.49980301 10.35691299 3.19955719 9.6706131 2.89021301 8.96351624 C2.27096292 7.59765482 1.59873007 6.25510049 0.88749695 4.93479919 C0 3 0 3 0 0 Z " fill="#070707" transform="translate(209,491)"/>
<path d="M0 0 C2.20079164 0.54778149 4.1643845 0.66368999 6.43035889 0.71034241 C7.2909491 0.73028763 8.15153931 0.75023285 9.03820801 0.77078247 C9.95813538 0.78749496 10.87806274 0.80420746 11.8258667 0.82142639 C13.24902191 0.85259804 13.24902191 0.85259804 14.70092773 0.88439941 C17.72687652 0.94969948 20.7529109 1.00868902 23.7789917 1.06752014 C25.83238591 1.11072394 27.88577152 1.15433883 29.93914795 1.19837952 C34.9690085 1.30536087 39.99895502 1.40668337 45.0289917 1.50502014 C45.0289917 1.83502014 45.0289917 2.16502014 45.0289917 2.50502014 C37.99323255 4.1974853 30.6613113 3.69920566 23.4664917 3.69252014 C22.29054947 3.69360779 22.29054947 3.69360779 21.09085083 3.69471741 C8.96861857 3.69347466 -2.9499176 3.17751972 -14.9710083 1.50502014 C-14.9710083 1.17502014 -14.9710083 0.84502014 -14.9710083 0.50502014 C-10.14095362 -0.70249353 -4.87571774 -1.22444034 0 0 Z " fill="#D6D7D8" transform="translate(495.97100830078125,911.4949798583984)"/>
<path d="M0 0 C0.66 0.33 1.32 0.66 2 1 C2.01030746 1.83493988 2.02061493 2.66987976 2.03123474 3.53012085 C2.12909975 11.38798973 2.23159839 19.24578142 2.33933926 27.10352135 C2.3945691 31.14353051 2.44798919 35.18354691 2.49731445 39.22363281 C2.54495713 43.12050405 2.59729989 47.01728609 2.65294075 50.91405106 C2.67336475 52.40281588 2.69207776 53.89160516 2.70907402 55.38041306 C2.73311711 57.46121843 2.76317159 59.54185475 2.79467773 61.62255859 C2.81799416 63.40126846 2.81799416 63.40126846 2.84178162 65.21591187 C2.81329649 67.95638065 2.81329649 67.95638065 4 70 C3.67 70.66 3.34 71.32 3 72 C-8.52164009 71.03644647 -8.52164009 71.03644647 -14 70 C-14 69.67 -14 69.34 -14 69 C-8.06678378 68.79181697 -5.07670404 69.26379884 1 71 C0.67 47.57 0.34 24.14 0 0 Z " fill="#F3E9EF" transform="translate(502,826)"/>
<path d="M0 0 C0 0.66 0 1.32 0 2 C-5.17578125 5.22265625 -5.17578125 5.22265625 -7 6 C-7.99 5.67 -8.98 5.34 -10 5 C-10.2475 5.62519531 -10.495 6.25039063 -10.75 6.89453125 C-12.65450828 10.10243738 -14.95968578 10.3806326 -18.41015625 11.3984375 C-22.53495487 12.35653552 -26.75300126 13.16859541 -31 13 C-31.66 12.34 -32.32 11.68 -33 11 C-31.76765625 10.62488281 -30.5353125 10.24976563 -29.265625 9.86328125 C-20.70831947 7.22746846 -12.33848863 4.53385608 -4.15234375 0.8828125 C-2 0 -2 0 0 0 Z " fill="#DDEDEB" transform="translate(598,879)"/>
<path d="M0 0 C0.66 0 1.32 0 2 0 C2 0.66 2 1.32 2 2 C2.66 2 3.32 2 4 2 C4 2.66 4 3.32 4 4 C4.66 4 5.32 4 6 4 C6.45375 4.969375 6.9075 5.93875 7.375 6.9375 C8.65786221 10.07079582 8.65786221 10.07079582 11 11 C11 11.99 11 12.98 11 14 C12.32 14.33 13.64 14.66 15 15 C15 15.99 15 16.98 15 18 C15.66 18 16.32 18 17 18 C17.433125 18.94875 17.86625 19.8975 18.3125 20.875 C19.79302201 24.20041937 19.79302201 24.20041937 23 26 C22.67 27.32 22.34 28.64 22 30 C2.76311031 8.28933092 2.76311031 8.28933092 0 0 Z " fill="#D8E3E3" transform="translate(338,817)"/>
<path d="M0 0 C2.93167071 1.38038307 5.51306023 2.95825333 8.125 4.875 C8.80820312 5.36742187 9.49140625 5.85984375 10.1953125 6.3671875 C12.13312562 8.12044699 12.89504252 9.66408111 14 12 C16.0335948 13.26804566 16.0335948 13.26804566 18 14 C18 14.66 18 15.32 18 16 C18.66 16 19.32 16 20 16 C20.33 17.65 20.66 19.3 21 21 C19.35277302 19.59299362 17.70676064 18.18454403 16.06640625 16.76953125 C14.71018954 15.60815853 13.34322319 14.45919913 11.96484375 13.32421875 C7.20989977 9.33886108 3.50748985 5.11508936 0 0 Z " fill="#CDD8D4" transform="translate(498,552)"/>
<path d="M0 0 C0.33 1.32 0.66 2.64 1 4 C0.154375 4.66 -0.69125 5.32 -1.5625 6 C-4.12723613 8.11530807 -6.20396354 10.37080025 -8.3125 12.9375 C-11.96293894 17.25091104 -16.17886528 20.11387853 -21 23 C-21.66 22.67 -22.32 22.34 -23 22 C-22.33613281 21.49210938 -21.67226563 20.98421875 -20.98828125 20.4609375 C-15.21752159 16.05904315 -15.21752159 16.05904315 -10.25 10.8125 C-8.46438168 8.5804771 -6.99322253 7.06962894 -4.8125 5.3125 C-1.87245245 3.12328275 -1.87245245 3.12328275 0 0 Z " fill="#D8E2E2" transform="translate(670,826)"/>
<path d="M0 0 C1.94229492 0.00676758 1.94229492 0.00676758 3.92382812 0.01367188 C7.095101 0.02537399 10.26627546 0.04176887 13.4375 0.0625 C13.4375 0.3925 13.4375 0.7225 13.4375 1.0625 C5.1875 1.0625 -3.0625 1.0625 -11.5625 1.0625 C-11.5625 2.0525 -11.5625 3.0425 -11.5625 4.0625 C-15.1925 4.0625 -18.8225 4.0625 -22.5625 4.0625 C-22.8925 3.0725 -23.2225 2.0825 -23.5625 1.0625 C-15.68902596 -0.02556442 -7.93970997 -0.05279603 0 0 Z " fill="#C4CECE" transform="translate(213.5625,472.9375)"/>
<path d="M0 0 C5.04424468 0.44508041 7.44443409 2.60980925 11 6 C11 6.66 11 7.32 11 8 C11.78375 8.268125 12.5675 8.53625 13.375 8.8125 C16 10 16 10 18 13 C17.625 15.1875 17.625 15.1875 17 17 C11.33333333 11.33333333 5.66666667 5.66666667 0 0 Z " fill="#D9E4E4" transform="translate(325,550)"/>
<path d="M0 0 C-0.99 0.33 -1.98 0.66 -3 1 C-3 1.66 -3 2.32 -3 3 C-5.93705131 3.22155127 -8.87380363 3.42774197 -11.8125 3.625 C-12.64587891 3.68945312 -13.47925781 3.75390625 -14.33789062 3.8203125 C-15.54155273 3.89765625 -15.54155273 3.89765625 -16.76953125 3.9765625 C-17.87711792 4.05511475 -17.87711792 4.05511475 -19.00708008 4.13525391 C-21 4 -21 4 -24 2 C-15.96235969 -0.07422976 -8.27015524 -0.2144997 0 0 Z " fill="#DDF0EE" transform="translate(557,87)"/>
<path d="M0 0 C0.99 0 1.98 0 3 0 C4.07957377 3.23872132 4.13326784 5.66028205 4.125 9.0625 C4.12757813 10.12597656 4.13015625 11.18945312 4.1328125 12.28515625 C4 15 4 15 3 17 C3.66 17 4.32 17 5 17 C4.67 20.63 4.34 24.26 4 28 C3.67 28 3.34 28 3 28 C2.49595781 24.08384244 1.99746767 20.1669977 1.5 16.25 C1.35691406 15.13882813 1.21382813 14.02765625 1.06640625 12.8828125 C0.93105469 11.81289063 0.79570312 10.74296875 0.65625 9.640625 C0.53056641 8.65610352 0.40488281 7.67158203 0.27539062 6.65722656 C0 4 0 4 0 0 Z " fill="#ECF1F3" transform="translate(498,794)"/>
<path d="M0 0 C17.29257167 -0.72163746 17.29257167 -0.72163746 23.66015625 4.3125 C25.0625 5.6875 25.0625 5.6875 27 8 C26.40574219 7.81824219 25.81148438 7.63648438 25.19921875 7.44921875 C12.75812479 3.54989199 12.75812479 3.54989199 0 1 C0 0.67 0 0.34 0 0 Z " fill="#CDCCCB" transform="translate(232,493)"/>
<path d="M0 0 C0.66 0 1.32 0 2 0 C2 0.66 2 1.32 2 2 C2.66 2 3.32 2 4 2 C4 3.65 4 5.3 4 7 C4.66 7 5.32 7 6 7 C6.33 9.64 6.66 12.28 7 15 C7.66 15 8.32 15 9 15 C11.17364926 17.81769349 12.08677021 19.2190681 11.6875 22.8125 C11.460625 23.534375 11.23375 24.25625 11 25 C6.6277468 18.44162019 0 8.05708677 0 0 Z " fill="#D3DFDF" transform="translate(259,648)"/>
<path d="M0 0 C0.66 0 1.32 0 2 0 C2 0.66 2 1.32 2 2 C2.66 2 3.32 2 4 2 C4.73679858 3.70803308 5.47228553 5.41665123 6.19921875 7.12890625 C6.84397614 8.63543694 7.51207936 10.13196491 8.1875 11.625 C9.07530939 14.22013513 9.15563499 16.27638769 9 19 C9.66 19 10.32 19 11 19 C10.34 20.32 9.68 21.64 9 23 C0 3.59836066 0 3.59836066 0 0 Z " fill="#E0ECEE" transform="translate(234,592)"/>
<path d="M0 0 C1.98 0.66 3.96 1.32 6 2 C6 2.99 6 3.98 6 5 C6.804375 5.28875 7.60875 5.5775 8.4375 5.875 C11 7 11 7 12 9 C13.97888961 9.72693904 15.97954558 10.39816251 18 11 C18.33 12.65 18.66 14.3 19 16 C19.66 16 20.32 16 21 16 C20.67 16.66 20.34 17.32 20 18 C13.09973879 12.61192369 6.28239894 7.10863045 0 1 C0 0.67 0 0.34 0 0 Z " fill="#C6D3D0" transform="translate(367,853)"/>
<path d="M0 0 C0.33 0.66 0.66 1.32 1 2 C-0.73738371 6.12628631 -3.14449013 8.13663871 -7.08203125 10.21875 C-10.05142619 11.42827951 -12.81196546 11.73975228 -16 12 C-13.04983186 8.82559105 -9.99784714 6.58078442 -6.3125 4.3125 C-2.97781689 2.39067278 -2.97781689 2.39067278 0 0 Z " fill="#D3E2DF" transform="translate(638,855)"/>
<path d="M0 0 C3.27781325 -0.34782551 4.76841167 -0.13806227 7.640625 1.57421875 C8.50171875 2.27160156 9.3628125 2.96898437 10.25 3.6875 C11.55710937 4.71423828 11.55710937 4.71423828 12.890625 5.76171875 C15.22558957 8.2393756 15.69575489 9.65915464 16 13 C14.10353819 11.57765365 12.20733689 10.15498005 10.3125 8.73046875 C8.77581566 7.58055124 7.23415191 6.4372569 5.6875 5.30078125 C4.965625 4.76839844 4.24375 4.23601563 3.5 3.6875 C2.8296875 3.19636719 2.159375 2.70523438 1.46875 2.19921875 C0.9840625 1.80347656 0.499375 1.40773438 0 1 C0 0.67 0 0.34 0 0 Z " fill="#DAE1DC" transform="translate(292,520)"/>
<path d="M0 0 C1.921875 0.7109375 1.921875 0.7109375 4 2 C4.828125 4.1640625 4.828125 4.1640625 5.25 6.625 C5.39953125 7.44226563 5.5490625 8.25953125 5.703125 9.1015625 C5.80109375 9.72804688 5.8990625 10.35453125 6 11 C6.99 11 7.98 11 9 11 C11.09230769 15.43076923 11.09230769 15.43076923 10.625 18.3125 C10.315625 19.1478125 10.315625 19.1478125 10 20 C7.47798906 16.85881272 5.66752801 13.60307137 3.875 10 C3.35679687 8.96875 2.83859375 7.9375 2.3046875 6.875 C1.24534979 4.54065104 0.49280252 2.50007131 0 0 Z " fill="#CFDCDE" transform="translate(318,780)"/>
<path d="M0 0 C-3.70060202 3.92488093 -7.4906925 7.02215543 -12 10 C-12.66 10 -13.32 10 -14 10 C-13.2715665 5.64831935 -11.23052614 3.91606282 -7.921875 1.1953125 C-5.22278608 -0.48338914 -3.09292159 -0.45262267 0 0 Z " fill="#ECE2E9" transform="translate(653,866)"/>
<path d="M0 0 C4.47531555 1.40652774 6.76271706 3.6797098 10 7 C11.31747324 7.69748583 12.64914193 8.36959957 14 9 C16.38506416 11.03172132 16.97677282 11.93031846 18 15 C18.66 15.66 19.32 16.32 20 17 C17 17 17 17 15.421875 15.76245117 C14.87015625 15.19502197 14.3184375 14.62759277 13.75 14.04296875 C13.1415625 13.42486328 12.533125 12.80675781 11.90625 12.16992188 C11.2771875 11.51572266 10.648125 10.86152344 10 10.1875 C9.05640625 9.22360352 9.05640625 9.22360352 8.09375 8.24023438 C6.91842614 7.03876454 5.74620895 5.83424218 4.578125 4.62573242 C3.06666181 3.0686728 1.53831179 1.53049281 0 0 Z " fill="#CFDCD8" transform="translate(396,618)"/>
<path d="M0 0 C1.32 0.33 2.64 0.66 4 1 C4.66 3.97 5.32 6.94 6 10 C6.66 10 7.32 10 8 10 C8.66 12.64 9.32 15.28 10 18 C9.34 18.33 8.68 18.66 8 19 C6.66368279 16.02216282 5.33144896 13.04251668 4 10.0625 C3.6184375 9.21236328 3.236875 8.36222656 2.84375 7.48632812 C2.4828125 6.67744141 2.121875 5.86855469 1.75 5.03515625 C1.41484375 4.2862915 1.0796875 3.53742676 0.734375 2.76586914 C0 1 0 1 0 0 Z " fill="#E0EBEA" transform="translate(186,486)"/>
<path d="M0 0 C0.33 0.66 0.66 1.32 1 2 C-0.28062485 3.7074998 -1.61767557 5.37373596 -3 7 C-3.66 7 -4.32 7 -5 7 C-5.226875 7.639375 -5.45375 8.27875 -5.6875 8.9375 C-7 11 -7 11 -9.625 11.75 C-10.40875 11.8325 -11.1925 11.915 -12 12 C-12 12.66 -12 13.32 -12 14 C-12.66 13.67 -13.32 13.34 -14 13 C-9.55618306 8.41283413 -4.79771501 4.21237287 0 0 Z " fill="#D7E2E5" transform="translate(406,176)"/>
<path d="M0 0 C0.66 0.33 1.32 0.66 2 1 C0.68 5.62 -0.64 10.24 -2 15 C-2.99 14.67 -3.98 14.34 -5 14 C-4.74279326 12.41439607 -4.46861201 10.83154076 -4.1875 9.25 C-3.96126953 7.92742187 -3.96126953 7.92742187 -3.73046875 6.578125 C-2.94585752 3.8089089 -1.85404641 2.1740599 0 0 Z " fill="#ECEAEB" transform="translate(485,152)"/>
<path d="M0 0 C1.65 0 3.3 0 5 0 C5.33 0.99 5.66 1.98 6 3 C8.30368736 4.06652192 10.64018187 5.06421005 13 6 C13.99 6.66 14.98 7.32 16 8 C15.67 8.99 15.34 9.98 15 11 C12.68368391 9.54744565 10.371983 8.08834588 8.0625 6.625 C7.40314453 6.2125 6.74378906 5.8 6.06445312 5.375 C1.11328125 2.2265625 1.11328125 2.2265625 0 0 Z " fill="#DFE5E4" transform="translate(539,588)"/>
<path d="M0 0 C0.33 0 0.66 0 1 0 C1.06058594 0.77085937 1.12117188 1.54171875 1.18359375 2.3359375 C1.30927734 3.84027344 1.30927734 3.84027344 1.4375 5.375 C1.51871094 6.37273438 1.59992188 7.37046875 1.68359375 8.3984375 C1.84965626 10.97927613 1.84965626 10.97927613 3 13 C2.67 13.66 2.34 14.32 2 15 C-9.52164009 14.03644647 -9.52164009 14.03644647 -15 13 C-15 12.67 -15 12.34 -15 12 C-9.47322267 11.80607799 -5.24385089 12.2520497 0 14 C0 9.38 0 4.76 0 0 Z " fill="#C6C6C9" transform="translate(503,883)"/>
<path d="M0 0 C0.99 0 1.98 0 3 0 C3 0.66 3 1.32 3 2 C3.77085937 2.13277344 4.54171875 2.26554688 5.3359375 2.40234375 C6.33882812 2.57894531 7.34171875 2.75554688 8.375 2.9375 C9.87160156 3.19853516 9.87160156 3.19853516 11.3984375 3.46484375 C14 4 14 4 16 5 C15.67 5.99 15.34 6.98 15 8 C13.27046032 7.37603297 11.541385 6.75077872 9.8125 6.125 C8.84957031 5.77695312 7.88664063 5.42890625 6.89453125 5.0703125 C4.24365141 4.09009512 1.6186902 3.06279566 -1 2 C-0.67 1.34 -0.34 0.68 0 0 Z " fill="#D8DBDA" transform="translate(631,636)"/>
<path d="M0 0 C-2.4566947 1.00419637 -4.91518353 2.00350501 -7.375 3 C-8.42300781 3.42925781 -8.42300781 3.42925781 -9.4921875 3.8671875 C-14.7734375 6 -14.7734375 6 -17 6 C-17.33 5.01 -17.66 4.02 -18 3 C-15.36 2.67 -12.72 2.34 -10 2 C-10 1.34 -10 0.68 -10 0 C-6.26432828 -0.76411467 -3.65188082 -1.07174763 0 0 Z " fill="#E9DDE7" transform="translate(605,896)"/>
<path d="M0 0 C0.99 0.33 1.98 0.66 3 1 C3 1.99 3 2.98 3 4 C3.66 4 4.32 4 5 4 C5.33 6.31 5.66 8.62 6 11 C6.66 11 7.32 11 8 11 C7.67 12.32 7.34 13.64 7 15 C4.25484323 12.61666905 3.10919982 10.31090681 1.8125 6.9375 C1.46832031 6.05964844 1.12414062 5.18179688 0.76953125 4.27734375 C0 2 0 2 0 0 Z " fill="#D8E4E3" transform="translate(475,719)"/>
<path d="M0 0 C5.36095277 1.58921525 10.70843973 3.18972938 16 5 C16 5.33 16 5.66 16 6 C11.9472484 6.98248524 8.16138263 7.08159574 4 7 C4.66 5.68 5.32 4.36 6 3 C4.35 3 2.7 3 1 3 C0.67 2.01 0.34 1.02 0 0 Z " fill="#D3DCDA" transform="translate(449,885)"/>
<path d="M0 0 C0 0.66 0 1.32 0 2 C-0.66 2 -1.32 2 -2 2 C-2 2.66 -2 3.32 -2 4 C-2.69867188 3.98839844 -3.39734375 3.97679687 -4.1171875 3.96484375 C-5.02726562 3.95582031 -5.93734375 3.94679687 -6.875 3.9375 C-7.77992188 3.92589844 -8.68484375 3.91429687 -9.6171875 3.90234375 C-12.0168585 3.83750743 -12.0168585 3.83750743 -14 5 C-14.66 4.34 -15.32 3.68 -16 3 C-14.27318563 2.49193553 -12.54342021 1.99389533 -10.8125 1.5 C-9.84957031 1.2215625 -8.88664062 0.943125 -7.89453125 0.65625 C-5.14654124 0.03322392 -2.80401584 -0.12302812 0 0 Z " fill="#CADCDB" transform="translate(453,157)"/>
<path d="M0 0 C0.66 0.33 1.32 0.66 2 1 C0.625 2.5 0.625 2.5 -1 4 C-1.66 4 -2.32 4 -3 4 C-3 4.66 -3 5.32 -3 6 C-3.928125 6.12375 -3.928125 6.12375 -4.875 6.25 C-7.1765144 6.79994195 -7.1765144 6.79994195 -8.125 9 C-8.41375 9.66 -8.7025 10.32 -9 11 C-9.99 11.495 -9.99 11.495 -11 12 C-11.66 11.34 -12.32 10.68 -13 10 C-11.3970551 8.70681744 -9.79259858 7.41550844 -8.1875 6.125 C-7.29417969 5.40570313 -6.40085937 4.68640625 -5.48046875 3.9453125 C-3 2 -3 2 0 0 Z " fill="#D5E2E2" transform="translate(508,100)"/>
<path d="M0 0 C0 0.33 0 0.66 0 1 C-5.82748619 3.42811925 -11.7757491 3.61727907 -18 4 C-18 3.01 -18 2.02 -18 1 C-11.97968656 0.39034801 -6.05329744 -0.13451772 0 0 Z " fill="#DAEBE9" transform="translate(539,896)"/>
<path d="M0 0 C0.66 0 1.32 0 2 0 C6.07877462 8.03501094 6.07877462 8.03501094 5.75 12.0625 C5.5025 12.701875 5.255 13.34125 5 14 C3.45713453 11.68570179 2.10007245 9.45428972 0.8125 7 C0.44769531 6.319375 0.08289063 5.63875 -0.29296875 4.9375 C-1 3 -1 3 0 0 Z " fill="#DBE7E7" transform="translate(306,751)"/>
<path d="M0 0 C4.43458973 1.3937282 6.87378374 3.60582235 10 7 C9.01 7.99 8.02 8.98 7 10 C5.83043409 8.52312468 4.66441854 7.04343707 3.5 5.5625 C2.8503125 4.73878906 2.200625 3.91507813 1.53125 3.06640625 C0 1 0 1 0 0 Z " fill="#D5DEDD" transform="translate(436,658)"/>
<path d="M0 0 C4.18423892 3.50897269 8.19588166 7.08060535 12 11 C8.62537285 10.45276317 6.91765 9.9451 4 8 C4 7.34 4 6.68 4 6 C3.01 5.67 2.02 5.34 1 5 C0.67 3.35 0.34 1.7 0 0 Z " fill="#DAD5D6" transform="translate(387,847)"/>
<path d="M0 0 C1.41750563 0.11509661 2.83401169 0.24253658 4.25 0.375 C5.03890625 0.44460938 5.8278125 0.51421875 6.640625 0.5859375 C9.14478952 1.02541008 10.86957156 1.61427885 13 3 C13.33 3.99 13.66 4.98 14 6 C12.22888156 5.52188823 10.45811517 5.0424722 8.6875 4.5625 C7.70136719 4.29566406 6.71523438 4.02882813 5.69921875 3.75390625 C3.78482474 3.21920575 1.88566385 2.62855462 0 2 C0 1.34 0 0.68 0 0 Z " fill="#D6D6D4" transform="translate(444,901)"/>
<path d="M0 0 C2.33697029 2.33697029 3.27094054 4.49097899 4.625 7.5 C5.29402344 8.96953125 5.29402344 8.96953125 5.9765625 10.46875 C7 13 7 13 7 15 C5 15 5 15 3.5 13.9375 C0.37872995 9.90585952 -0.302371 4.98912153 0 0 Z " fill="#DBD9D1" transform="translate(309,718)"/>
<path d="M0 0 C1.32 0 2.64 0 4 0 C4.66 2.64 5.32 5.28 6 8 C6.66 8 7.32 8 8 8 C8.33 9.65 8.66 11.3 9 13 C5.48026899 9.74098981 2.47239725 6.1139069 0 2 C0 1.34 0 0.68 0 0 Z " fill="#D2DEDE" transform="translate(482,530)"/>
<path d="M0 0 C5.10843373 7.6626506 5.10843373 7.6626506 4.8125 11.3125 C4 13 4 13 2 14 C1.47216999 11.85587698 0.95290681 9.70964319 0.4375 7.5625 C0.00244141 5.77005859 0.00244141 5.77005859 -0.44140625 3.94140625 C-0.62574219 2.97074219 -0.81007813 2.00007812 -1 1 C-0.67 0.67 -0.34 0.34 0 0 Z " fill="#E3E9EC" transform="translate(490,754)"/>
<path d="M0 0 C1.67588141 2.51382212 2.94030311 4.82947288 4.1875 7.5625 C4.55230469 8.34753906 4.91710937 9.13257813 5.29296875 9.94140625 C5.52628906 10.62074219 5.75960937 11.30007813 6 12 C5.67 12.66 5.34 13.32 5 14 C4.34 13.67 3.68 13.34 3 13 C3 12.34 3 11.68 3 11 C2.34 11 1.68 11 1 11 C0.67 7.37 0.34 3.74 0 0 Z " fill="#D4D0C8" transform="translate(216,509)"/>
<path d="M0 0 C0.66 0 1.32 0 2 0 C2 0.66 2 1.32 2 2 C2.66 2 3.32 2 4 2 C4 2.66 4 3.32 4 4 C4.66 4 5.32 4 6 4 C7.72264494 7.29549466 9.29445932 10.33118845 10 14 C5.7850053 10.14629056 2.75158756 6.01140202 0 1 C0 0.67 0 0.34 0 0 Z " fill="#CADAD9" transform="translate(338,817)"/>
<path d="M0 0 C5.87475032 1.53254356 11.39473306 3.67669016 17 6 C15.02 6.99 15.02 6.99 13 8 C12.67 7.34 12.34 6.68 12 6 C9.67843403 5.59270772 7.3431213 5.25561323 5 5 C5 4.34 5 3.68 5 3 C3.68 3 2.36 3 1 3 C0.67 2.01 0.34 1.02 0 0 Z " fill="#CED5D4" transform="translate(637,621)"/>
<path d="M0 0 C0.33 0 0.66 0 1 0 C1.50227431 5.27388024 0.32894202 7.91015695 -3 12 C-3.99 12.33 -4.98 12.66 -6 13 C-4.31326082 8.50202887 -2.18326108 4.27113698 0 0 Z " fill="#E0E0E2" transform="translate(379,206)"/>
<path d="M0 0 C3.84375 0.796875 3.84375 0.796875 5.25 2.625 C6.25295915 5.8010373 6.12721966 8.69228878 6 12 C2.82781157 8.37464179 1.57097403 4.48849722 0 0 Z " fill="#D5DFDE" transform="translate(469,707)"/>
<path d="M0 0 C2.21368294 2.21368294 3.86552921 3.93016625 4.265625 7.11328125 C4.25166986 9.07746787 4.13286356 11.0402625 4 13 C1.0396355 9.63594943 -0.03380551 6.34787522 -1 2 C-0.67 1.34 -0.34 0.68 0 0 Z " fill="#CFD8D9" transform="translate(285,703)"/>
<path d="M0 0 C0.639375 0.28875 1.27875 0.5775 1.9375 0.875 C5.88410292 2.3247725 9.8874607 3.15778062 14 4 C13.67 4.66 13.34 5.32 13 6 C7.88634986 4.9318153 2.92772031 3.76892524 -2 2 C-1.34 1.34 -0.68 0.68 0 0 Z " fill="#D1CECF" transform="translate(673,652)"/>
<path d="M0 0 C-0.99 0.495 -0.99 0.495 -2 1 C-2.33 1.99 -2.66 2.98 -3 4 C-5.64 4 -8.28 4 -11 4 C-4.14893617 -1.38297872 -4.14893617 -1.38297872 0 0 Z " fill="#D9EAE9" transform="translate(610,875)"/>
<path d="M0 0 C-1 3 -1 3 -3.125 4.625 C-6.43781262 6.20938865 -9.36260716 6.64339286 -13 7 C-4.25 0 -4.25 0 0 0 Z " fill="#D5E5E3" transform="translate(622,867)"/>
<path d="M0 0 C3.67033927 3.27708863 5.69281189 6.71522208 8 11 C7.34 11 6.68 11 6 11 C6 10.34 6 9.68 6 9 C5.38125 8.938125 4.7625 8.87625 4.125 8.8125 C2 8 2 8 0.75 5.625 C0 3 0 3 0 0 Z " fill="#DAD6D4" transform="translate(354,810)"/>
<path d="M0 0 C1.32 0.33 2.64 0.66 4 1 C5.1875 3.8125 5.1875 3.8125 6 7 C6.309375 8.175625 6.309375 8.175625 6.625 9.375 C6.74875 9.91125 6.8725 10.4475 7 11 C6.01 11.495 6.01 11.495 5 12 C3.35 8.04 1.7 4.08 0 0 Z " fill="#D0DFDF" transform="translate(299,739)"/>
<path d="M0 0 C1.921875 0.6484375 1.921875 0.6484375 4 2 C4.828125 4.6015625 4.828125 4.6015625 5.25 7.625 C5.39953125 8.62789062 5.5490625 9.63078125 5.703125 10.6640625 C5.80109375 11.43492187 5.8990625 12.20578125 6 13 C4.0417761 11.0417761 3.10584703 9.51051799 1.875 7.0625 C1.52179688 6.37285156 1.16859375 5.68320312 0.8046875 4.97265625 C0 3 0 3 0 0 Z " fill="#DEE6E4" transform="translate(270,673)"/>
<path d="M0 0 C3 2 3 2 4.3125 5.4375 C5 9 5 9 3 12 C1.68 8.37 0.36 4.74 -1 1 C-0.67 0.67 -0.34 0.34 0 0 Z " fill="#E2ECEC" transform="translate(255,636)"/>
<path d="M0 0 C1.921875 0.328125 1.921875 0.328125 4 1 C5.69726294 4.73397847 6.23990744 7.92157346 6 12 C3.71540242 9.71540242 3.02870252 7.87462656 1.875 4.875 C1.52179688 3.96492187 1.16859375 3.05484375 0.8046875 2.1171875 C0.53914062 1.41851563 0.27359375 0.71984375 0 0 Z " fill="#D4E3E2" transform="translate(199,515)"/>
<path d="M0 0 C1.09898702 3.29696105 0.87124444 4.40494903 0.0625 7.6875 C-0.22947266 8.89986328 -0.22947266 8.89986328 -0.52734375 10.13671875 C-0.68332031 10.75160156 -0.83929687 11.36648438 -1 12 C-3 10 -3 10 -3.125 6.375 C-3.08375 5.26125 -3.0425 4.1475 -3 3 C-2.01 2.67 -1.02 2.34 0 2 C0 1.34 0 0.68 0 0 Z " fill="#E0E0DF" transform="translate(741,723)"/>
<path d="M0 0 C1.65 0 3.3 0 5 0 C5.33 0.99 5.66 1.98 6 3 C6.99 2.67 7.98 2.34 9 2 C9 2.66 9 3.32 9 4 C10.32 4.66 11.64 5.32 13 6 C8.85323868 6 7.68791935 5.5223055 4.25 3.5 C3.45078125 3.0359375 2.6515625 2.571875 1.828125 2.09375 C1.22484375 1.7328125 0.6215625 1.371875 0 1 C0 0.67 0 0.34 0 0 Z " fill="#D6DCD8" transform="translate(560,602)"/>
<path d="M0 0 C3.65316671 1.24976756 4.78065836 1.67098753 7 5 C6.625 7.1875 6.625 7.1875 6 9 C0.42857143 3.85714286 0.42857143 3.85714286 0 0 Z " fill="#E2E9E9" transform="translate(336,558)"/>
<path d="M0 0 C2.22998296 2.22998296 3.61442213 4.16286436 5 7 C4.6875 9.8125 4.6875 9.8125 4 12 C2.03782293 9.0567344 0.41759302 6.24021262 -1 3 C-0.67 2.01 -0.34 1.02 0 0 Z " fill="#E1EBEB" transform="translate(209,533)"/>
<path d="M0 0 C3.3 0 6.6 0 10 0 C6.7895201 2.40785992 4.64991166 3.68197635 1 5 C0.67 3.35 0.34 1.7 0 0 Z " fill="#2C2826" transform="translate(209,491)"/>
<path d="M0 0 C3.3 0.33 6.6 0.66 10 1 C10.33 2.32 10.66 3.64 11 5 C7.27566618 3.7874262 3.62197194 2.49140021 0 1 C0 0.67 0 0.34 0 0 Z " fill="#D9D9D8" transform="translate(427,895)"/>
<path d="M0 0 C0.33 0 0.66 0 1 0 C1 2.97 1 5.94 1 9 C1.66 9 2.32 9 3 9 C2.67 12.63 2.34 16.26 2 20 C1.67 20 1.34 20 1 20 C0.11978631 13.28837062 -0.11381955 6.76594019 0 0 Z " fill="#DFD8DA" transform="translate(500,802)"/>
<path d="M0 0 C3.39417765 3.12621626 5.6062718 5.56541027 7 10 C5.1875 9.8125 5.1875 9.8125 3 9 C0.46629412 5.65188866 0 4.29875783 0 0 Z " fill="#D2CECB" transform="translate(456,655)"/>
<path d="M0 0 C0.66 0 1.32 0 2 0 C2 0.66 2 1.32 2 2 C2.66 2 3.32 2 4 2 C4.66 5.96 5.32 9.92 6 14 C3.74402173 11.74402173 3.03425808 9.95396133 1.875 7 C1.52179688 6.113125 1.16859375 5.22625 0.8046875 4.3125 C0 2 0 2 0 0 Z " fill="#C7D5D3" transform="translate(234,592)"/>
<path d="M0 0 C1.29608947 0.93137592 2.58671632 1.8703566 3.875 2.8125 C4.59429687 3.33457031 5.31359375 3.85664062 6.0546875 4.39453125 C8 6 8 6 10 9 C7.0625 8.1875 7.0625 8.1875 4 7 C3.67 6.01 3.34 5.02 3 4 C2.01 3.67 1.02 3.34 0 3 C0 2.01 0 1.02 0 0 Z " fill="#E8DFE2" transform="translate(384,583)"/>
<path d="M0 0 C2.12161334 2.12161334 2.92986249 3.7733159 4.125 6.5 C4.47820312 7.2940625 4.83140625 8.088125 5.1953125 8.90625 C6 11 6 11 6 13 C3 12 3 12 1 9 C0.5859375 6.73828125 0.5859375 6.73828125 0.375 4.3125 C0.30023438 3.50425781 0.22546875 2.69601562 0.1484375 1.86328125 C0.09945312 1.24839844 0.05046875 0.63351562 0 0 Z " fill="#CEC9C2" transform="translate(248,581)"/>
<path d="M0 0 C2.475 0.99 2.475 0.99 5 2 C5 2.66 5 3.32 5 4 C5.66 4 6.32 4 7 4 C7.33 5.65 7.66 7.3 8 9 C6.84775972 8.07038578 5.70340824 7.1309875 4.5625 6.1875 C3.60537109 5.40439453 3.60537109 5.40439453 2.62890625 4.60546875 C1 3 1 3 0 0 Z " fill="#DDE4E2" transform="translate(511,564)"/>
<path d="M0 0 C1.14926266 0.95421808 2.29430541 1.91352045 3.4375 2.875 C4.07558594 3.40867187 4.71367187 3.94234375 5.37109375 4.4921875 C7 6 7 6 8 8 C6.35 7.67 4.7 7.34 3 7 C3 6.34 3 5.68 3 5 C2.01 4.67 1.02 4.34 0 4 C0 2.68 0 1.36 0 0 Z " fill="#E1E2E0" transform="translate(417,614)"/>
<path d="M0 0 C1.12894876 0.93274109 2.25300876 1.87140122 3.375 2.8125 C4.00148438 3.33457031 4.62796875 3.85664062 5.2734375 4.39453125 C7 6 7 6 9 9 C8.01 9.495 8.01 9.495 7 10 C6.34 9.34 5.68 8.68 5 8 C4.34 7.67 3.68 7.34 3 7 C3 6.01 3 5.02 3 4 C2.01 3.67 1.02 3.34 0 3 C0 2.01 0 1.02 0 0 Z " fill="#CCC8C6" transform="translate(338,538)"/>
<path d="M0 0 C5.28798182 0.41474367 8.11690718 1.35224614 12 5 C9 6 9 6 6.73828125 5.00390625 C5.93777344 4.52824219 5.13726562 4.05257812 4.3125 3.5625 C3.50425781 3.08941406 2.69601562 2.61632812 1.86328125 2.12890625 C1.24839844 1.75636719 0.63351562 1.38382813 0 1 C0 0.67 0 0.34 0 0 Z " fill="#DCDFDC" transform="translate(405,883)"/>
<path d="M0 0 C2.31 0.33 4.62 0.66 7 1 C7.33 2.65 7.66 4.3 8 6 C1.125 2.25 1.125 2.25 0 0 Z " fill="#D3DDD7" transform="translate(388,871)"/>
<path d="M0 0 C0.66 0 1.32 0 2 0 C2 0.66 2 1.32 2 2 C2.66 2 3.32 2 4 2 C4 3.65 4 5.3 4 7 C4.66 7 5.32 7 6 7 C6 7.99 6 8.98 6 10 C5.34 10 4.68 10 4 10 C3.32845067 8.71086513 2.66291141 7.41859796 2 6.125 C1.62875 5.40570312 1.2575 4.68640625 0.875 3.9453125 C0 2 0 2 0 0 Z " fill="#D9E8E8" transform="translate(259,648)"/>
<path d="M0 0 C-2.85306797 2.32472205 -5.54074837 3.7508258 -9 5 C-9 4.01 -9 3.02 -9 2 C-8.34 2 -7.68 2 -7 2 C-7 1.34 -7 0.68 -7 0 C-4.3333581 -1.33332095 -2.83319697 -0.67102033 0 0 Z " fill="#E4D8E4" transform="translate(711,298)"/>
<path d="M0 0 C0.99 0 1.98 0 3 0 C4.04892238 1.63631892 5.04906703 3.30485863 6 5 C6.66 5.33 7.32 5.66 8 6 C7.67 7.32 7.34 8.64 7 10 C5.82739389 8.71372289 4.6620717 7.42080217 3.5 6.125 C2.8503125 5.40570312 2.200625 4.68640625 1.53125 3.9453125 C0 2 0 2 0 0 Z " fill="#CFDDD7" transform="translate(353,837)"/>
<path d="M0 0 C1.98 0.66 3.96 1.32 6 2 C6.33 3.65 6.66 5.3 7 7 C6.01 7 5.02 7 4 7 C2.02 3.535 2.02 3.535 0 0 Z " fill="#D0DEDC" transform="translate(444,668)"/>
<path d="M0 0 C2.1640625 0.2421875 2.1640625 0.2421875 4.625 0.875 C5.44226563 1.07867188 6.25953125 1.28234375 7.1015625 1.4921875 C8.04128906 1.74355469 8.04128906 1.74355469 9 2 C9 2.66 9 3.32 9 4 C5.37 3.34 1.74 2.68 -2 2 C-1.34 1.34 -0.68 0.68 0 0 Z " fill="#DFE1DF" transform="translate(709,663)"/>
<path d="M0 0 C4.55384615 -0.36923077 4.55384615 -0.36923077 6.8125 1.5 C7.204375 1.995 7.59625 2.49 8 3 C7.67 3.99 7.34 4.98 7 6 C5.83054208 5.19152271 4.66449539 4.37810888 3.5 3.5625 C2.8503125 3.11003906 2.200625 2.65757812 1.53125 2.19140625 C1.0259375 1.79824219 0.520625 1.40507813 0 1 C0 0.67 0 0.34 0 0 Z " fill="#CBD7D3" transform="translate(292,520)"/>
<path d="M0 0 C1.32 0.33 2.64 0.66 4 1 C4.12375 1.969375 4.2475 2.93875 4.375 3.9375 C4.58125 4.948125 4.7875 5.95875 5 7 C5.66 7.33 6.32 7.66 7 8 C6.34 8.66 5.68 9.32 5 10 C3.35 6.7 1.7 3.4 0 0 Z " fill="#D9E6E4" transform="translate(476,520)"/>
<path d="M0 0 C0.33 0.66 0.66 1.32 1 2 C1.66 2.33 2.32 2.66 3 3 C4.35439668 5.70879335 4.06501451 8.00933268 4 11 C1.90217213 8.90217213 1.3490604 7.6200793 0.375 4.875 C0.11460937 4.15054688 -0.14578125 3.42609375 -0.4140625 2.6796875 C-0.60742188 2.12539063 -0.80078125 1.57109375 -1 1 C-0.67 0.67 -0.34 0.34 0 0 Z " fill="#D2E0DF" transform="translate(280,693)"/>
<path d="M0 0 C3.79588866 0.54226981 5.47211993 2.20127563 8 5 C7.67 5.99 7.34 6.98 7 8 C5.83035398 6.8572081 4.66435444 5.71068285 3.5 4.5625 C2.8503125 3.92441406 2.200625 3.28632812 1.53125 2.62890625 C0 1 0 1 0 0 Z " fill="#D5E2E1" transform="translate(388,610)"/>
<path d="M0 0 C0.33 0.66 0.66 1.32 1 2 C2.32467746 2.6837045 3.65863633 3.34964186 5 4 C5.66 4.66 6.32 5.32 7 6 C6.67 6.99 6.34 7.98 6 9 C3.69 6.69 1.38 4.38 -1 2 C-0.67 1.34 -0.34 0.68 0 0 Z " fill="#E3F1ED" transform="translate(357,578)"/>
<path d="M0 0 C0 0.99 0 1.98 0 3 C-2.31 3.33 -4.62 3.66 -7 4 C-7 4.66 -7 5.32 -7 6 C-7.99 5.67 -8.98 5.34 -10 5 C-3.63636364 0 -3.63636364 0 0 0 Z " fill="#CADFDD" transform="translate(707,281)"/>
<path d="M0 0 C0.66 0.66 1.32 1.32 2 2 C-0.97 3.32 -3.94 4.64 -7 6 C-7 4.68 -7 3.36 -7 2 C-4.69 1.34 -2.38 0.68 0 0 Z " fill="#EBDFE9" transform="translate(431,180)"/>
<path d="M0 0 C-0.33 0.99 -0.66 1.98 -1 3 C-4.375 3.625 -4.375 3.625 -8 4 C-8.66 3.34 -9.32 2.68 -10 2 C-3.375 0 -3.375 0 0 0 Z " fill="#BFD7D4" transform="translate(575,888)"/>
<path d="M0 0 C4.42857143 5.14285714 4.42857143 5.14285714 5 9 C2 8 2 8 0 5 C-0.125 2.3125 -0.125 2.3125 0 0 Z " fill="#D8D5CF" transform="translate(483,697)"/>
<path d="M0 0 C2 0 2 0 3.5625 1.3125 C5 3 5 3 6 6 C6.66 6.66 7.32 7.32 8 8 C5 8 5 8 2.875 6.25 C1.03354564 4.04025476 0.39987019 2.79909134 0 0 Z " fill="#DDE7E3" transform="translate(408,627)"/>
<path d="M0 0 C1.65 0 3.3 0 5 0 C5 0.66 5 1.32 5 2 C4.34 2 3.68 2 3 2 C3 3.98 3 5.96 3 8 C1.0549 5.08235 0.54723683 3.37462715 0 0 Z " fill="#D4DEDD" transform="translate(182,475)"/>
<path d="M0 0 C0.33 0.99 0.66 1.98 1 3 C0.07421875 4.82421875 0.07421875 4.82421875 -1.3125 6.6875 C-1.76238281 7.31011719 -2.21226562 7.93273437 -2.67578125 8.57421875 C-3.11277344 9.04472656 -3.54976562 9.51523437 -4 10 C-4.66 10 -5.32 10 -6 10 C-4.34832443 6.4213696 -2.21713508 3.25179812 0 0 Z " fill="#D9DFE1" transform="translate(661,314)"/>
<path d="M0 0 C0.99 0 1.98 0 3 0 C2.67 3.63 2.34 7.26 2 11 C1.67 11 1.34 11 1 11 C0.63743142 9.5437328 0.28520207 8.08488815 -0.0625 6.625 C-0.35833984 5.40683594 -0.35833984 5.40683594 -0.66015625 4.1640625 C-1 2 -1 2 0 0 Z " fill="#E0DEDD" transform="translate(479,169)"/>
<path d="M0 0 C-2.49505962 2.49505962 -3.67328888 2.35948376 -7.125 2.625 C-8.03507813 2.69976563 -8.94515625 2.77453125 -9.8828125 2.8515625 C-10.93082031 2.92503906 -10.93082031 2.92503906 -12 3 C-3.6319797 -1.2106599 -3.6319797 -1.2106599 0 0 Z " fill="#B8CECD" transform="translate(587,885)"/>
<path d="M0 0 C0.99 0.33 1.98 0.66 3 1 C3.33 2.65 3.66 4.3 4 6 C4.66 6 5.32 6 6 6 C5.67 6.66 5.34 7.32 5 8 C2.5 6.25 2.5 6.25 0 4 C0 2.68 0 1.36 0 0 Z " fill="#D4DCDA" transform="translate(382,863)"/>
<path d="M0 0 C0.33 0.99 0.66 1.98 1 3 C0.01 3.33 -0.98 3.66 -2 4 C-2.33 5.65 -2.66 7.3 -3 9 C-3.99 8.34 -4.98 7.68 -6 7 C-4.02 4.69 -2.04 2.38 0 0 Z " fill="#CBD4D0" transform="translate(677,818)"/>
<path d="M0 0 C0.66 0 1.32 0 2 0 C2 0.66 2 1.32 2 2 C3.98 2 5.96 2 8 2 C8.33 2.99 8.66 3.98 9 5 C5.7 4.01 2.4 3.02 -1 2 C-0.67 1.34 -0.34 0.68 0 0 Z " fill="#DBDCDA" transform="translate(654,645)"/>
<path d="M0 0 C2.31 0.66 4.62 1.32 7 2 C7 2.99 7 3.98 7 5 C1.25 3.25 1.25 3.25 -1 1 C-0.67 0.67 -0.34 0.34 0 0 Z " fill="#CDD2D2" transform="translate(267,503)"/>
<path d="M0 0 C0 0.66 0 1.32 0 2 C-0.639375 2.28875 -1.27875 2.5775 -1.9375 2.875 C-4.15206079 3.82823451 -4.15206079 3.82823451 -5 6 C-6.65 6 -8.3 6 -10 6 C-2.6 0 -2.6 0 0 0 Z " fill="#D6DFDF" transform="translate(417,170)"/>
<path d="M0 0 C1.65 0 3.3 0 5 0 C4.34 1.32 3.68 2.64 3 4 C1.35 4 -0.3 4 -2 4 C-1.34 2.68 -0.68 1.36 0 0 Z " fill="#D5E0DE" transform="translate(462,155)"/>
<path d="M0 0 C0.33 0.99 0.66 1.98 1 3 C0.34 3.66 -0.32 4.32 -1 5 C-1.99 5 -2.98 5 -4 5 C-4.33 5.66 -4.66 6.32 -5 7 C-5.66 6.34 -6.32 5.68 -7 5 C-4.69 3.35 -2.38 1.7 0 0 Z " fill="#DCE5E4" transform="translate(646,849)"/>
<path d="M0 0 C0 3.86695678 -1.41909971 6.5088452 -3 10 C-3.33 10 -3.66 10 -4 10 C-3.51171875 3.9453125 -3.51171875 3.9453125 -3 2 C-2.01 1.34 -1.02 0.68 0 0 Z " fill="#D4D6D3" transform="translate(724,776)"/>
<path d="M0 0 C0.66 0 1.32 0 2 0 C2 1.65 2 3.3 2 5 C1.34 5 0.68 5 0 5 C0 5.66 0 6.32 0 7 C-0.66 7 -1.32 7 -2 7 C-1.125 2.25 -1.125 2.25 0 0 Z " fill="#DDE2E4" transform="translate(716,749)"/>
<path d="M0 0 C1.32 0.33 2.64 0.66 4 1 C4 1.66 4 2.32 4 3 C5.32 3.33 6.64 3.66 8 4 C7.67 4.66 7.34 5.32 7 6 C3.63279613 4.60667426 2.0140476 3.0210714 0 0 Z " fill="#C4CFCB" transform="translate(368,591)"/>
<path d="M0 0 C1.65 0 3.3 0 5 0 C5.33 0.99 5.66 1.98 6 3 C6.66 3.33 7.32 3.66 8 4 C7.67 4.66 7.34 5.32 7 6 C5.83054208 5.19152271 4.66449539 4.37810888 3.5 3.5625 C2.8503125 3.11003906 2.200625 2.65757812 1.53125 2.19140625 C1.0259375 1.79824219 0.520625 1.40507813 0 1 C0 0.67 0 0.34 0 0 Z " fill="#C9D1D3" transform="translate(539,588)"/>
<path d="M0 0 C2.11180592 2.57089417 3.66306057 4.63060567 4 8 C3.34 8.66 2.68 9.32 2 10 C0.68373308 6.38026598 0 3.90432869 0 0 Z " fill="#D2CAC6" transform="translate(238,559)"/>
<path d="M0 0 C0.33 0 0.66 0 1 0 C1 1.98 1 3.96 1 6 C2.98 6.495 2.98 6.495 5 7 C5 7.66 5 8.32 5 9 C3.35 8.67 1.7 8.34 0 8 C0 5.36 0 2.72 0 0 Z " fill="#DAD3D5" transform="translate(637,519)"/>
<path d="M0 0 C-2.98646769 1.99097846 -5.59687262 2.94124926 -9 4 C-9 3.34 -9 2.68 -9 2 C-8.34 2 -7.68 2 -7 2 C-7 1.34 -7 0.68 -7 0 C-3.98968256 -0.93423645 -3.13349732 -1.04449911 0 0 Z " fill="#EFE5ED" transform="translate(443,177)"/>
<path d="M0 0 C1.9375 0.6875 1.9375 0.6875 4 2 C4.75 4.625 4.75 4.625 5 7 C4.01 6.67 3.02 6.34 2 6 C0.8125 2.9375 0.8125 2.9375 0 0 Z " fill="#E2ECEC" transform="translate(318,780)"/>
<path d="M0 0 C4.455 0.99 4.455 0.99 9 2 C9 2.33 9 2.66 9 3 C6.03 3 3.06 3 0 3 C0 2.01 0 1.02 0 0 Z " fill="#D3DDDA" transform="translate(701,644)"/>
<path d="M0 0 C1.32 0.33 2.64 0.66 4 1 C4 1.66 4 2.32 4 3 C5.32 3.66 6.64 4.32 8 5 C7.34 5.66 6.68 6.32 6 7 C4.02 4.69 2.04 2.38 0 0 Z " fill="#D5DEDA" transform="translate(415,636)"/>
<path d="M0 0 C1.31571603 0.2547514 2.62760376 0.52934141 3.9375 0.8125 C4.66839844 0.96332031 5.39929688 1.11414063 6.15234375 1.26953125 C6.76207031 1.51058594 7.37179687 1.75164063 8 2 C8.33 2.99 8.66 3.98 9 5 C5.22454612 3.90931332 2.52956528 3.0916909 0 0 Z " fill="#CED5D2" transform="translate(584,615)"/>
<path d="M0 0 C5.75 2.625 5.75 2.625 8 6 C6.02 5.34 4.04 4.68 2 4 C2 3.34 2 2.68 2 2 C1.34 2 0.68 2 0 2 C0 1.34 0 0.68 0 0 Z " fill="#D5CFCD" transform="translate(301,505)"/>
<path d="M0 0 C0.99 0.33 1.98 0.66 3 1 C2.34 2.98 1.68 4.96 1 7 C0.01 6.34 -0.98 5.68 -2 5 C-1.34 3.35 -0.68 1.7 0 0 Z " fill="#ECE9E8" transform="translate(387,225)"/>
</svg>
